# xmcd
#
# Track frame offsets:
#	150
#	17001
#	33634
#	50996
#	68024
#	82649
#	100904
#	119817
#	138148
#	155489
#	171559
#	183570
#	198567
#	217736
#	234323
#	249962
#
# Disc length: 3552
#
# Revision: 1
# Processed by: cddbd v1.5.1PL0 Copyright (c) Steve Scherf et al.
# Submitted via: EasyCDDAExtractor 8.0.1.1
# Normalized: r0:DSETVAR1
#
DISCID=db0dde10
DTITLE=Various Artist - CDX Volume 363
DYEAR=2005
DGENRE=Country
TTITLE0=Tift Merrit - Good Hearted Man
TTITLE1=Amber Dotson - I'll Try Anything
TTITLE2=Travis Tritt - I See Me
TTITLE3=Katrina Elam - I Want A Cowboy
TTITLE4=Shelly Fairchild - Tiny Town
TTITLE5=Melonie Cannon - Tennessee Road
TTITLE6=Jeannie Kendall - All The Girls I Am
TTITLE7=Johnny Lee - Don't Tell Me To Stop Loving You
TTITLE8=Derryl Perry - Four Nights In Albuquerque
TTITLE9=John Conlee - They Also Serve
TTITLE10=Hal Bynum Leona and Ron Williams - Papa Was A Good Man
TTITLE11=Lynn Bryant - When You Get To Be You
TTITLE12=Monte Lane Allen and Xmas Balls - If I Was An Angel
TTITLE13=Carmen - Photograph
TTITLE14=Victoria Venier - You Remain
TTITLE15=Billy Chernoff - Hard Living Cowboy
EXTD=
EXTT0=
EXTT1=
EXTT2=
EXTT3=
EXTT4=
EXTT5=
EXTT6=
EXTT7=
EXTT8=
EXTT9=
EXTT10=
EXTT11=
EXTT12=
EXTT13=
EXTT14=
EXTT15=
PLAYORDER=
